<svg width="184" height="51" viewBox="0 0 184 51" fill="none" xmlns="http://www.w3.org/2000/svg">
<path d="M133.426 23.7916L130.276 26.5462C129.882 26.5462 129.882 27.3333 129.882 27.7268L128.701 35.9905C128.365 38.2986 127.413 40.4735 125.945 42.2868C125.703 42.7564 125.37 43.1726 124.964 43.5106C124.558 43.8486 124.088 44.1015 123.582 44.2543C123.172 44.4495 122.72 44.5402 122.266 44.5183C121.812 44.4964 121.37 44.3627 120.98 44.129C120.591 43.8952 120.265 43.5688 120.032 43.1787C119.799 42.7887 119.666 42.347 119.645 41.8932C120.039 40.3192 120.039 38.7451 120.433 37.5646C121.932 34.2665 123.923 31.2148 126.339 28.5138C127.914 26.9397 127.914 25.7592 127.52 23.3981L125.945 25.3657L124.37 26.5462C123.189 27.7268 122.401 27.3333 121.614 25.7592L120.433 26.9397C120.208 27.2559 119.896 27.4989 119.534 27.6383C119.172 27.7776 118.778 27.8071 118.399 27.723C118.021 27.639 117.675 27.4451 117.407 27.1658C117.138 26.8864 116.958 26.534 116.889 26.1527C116.495 24.9722 116.495 23.3981 116.101 22.2176V21.037H115.708C115.463 21.2203 115.265 21.458 115.128 21.7312C114.991 22.0044 114.92 22.3056 114.92 22.6111L112.951 25.3657C112.558 26.1527 112.164 26.9397 111.376 26.5462L110.195 24.9722C109.67 25.4527 109.044 25.8084 108.362 26.0128C107.68 26.2172 106.961 26.2651 106.258 26.1527C104.683 25.7592 103.895 24.5786 103.502 22.6111C103.064 23.5765 102.537 24.4988 101.927 25.3657C101.139 26.5462 100.745 26.9397 99.5642 26.5462C98.383 26.1527 98.383 25.3657 98.7768 24.1851C99.1616 21.8151 100.26 19.6187 101.927 17.8889C103.502 16.7084 105.077 16.7084 105.864 17.8889C106.177 18.3506 106.317 18.9083 106.258 19.463H103.108C101.772 20.8572 100.94 22.6579 100.745 24.5786L102.32 22.2176C102.714 21.4305 102.714 21.037 103.108 20.6435L104.289 19.8565L105.077 21.037V23.0046C105.47 25.3657 107.045 25.7592 109.014 24.1851C109.89 23.2904 110.562 22.2163 110.983 21.037L112.164 18.6759L113.345 17.8889C113.345 18.2824 113.739 18.676 113.345 19.0695C112.951 19.463 112.558 22.2176 112.558 24.1851C112.839 23.1476 113.381 22.1993 114.133 21.4306L115.708 19.463C116.495 18.676 117.283 19.0695 117.283 20.25C117.609 21.6685 117.741 23.1246 117.676 24.5786C118.07 24.9722 118.07 26.1527 118.858 26.5462C119.645 26.9397 120.039 25.7592 120.826 25.3657L123.582 21.037L127.126 18.2824C127.485 18.0752 127.893 17.9661 128.307 17.9661C128.722 17.9661 129.129 18.0752 129.489 18.2824C129.882 18.2824 129.882 19.0695 130.276 19.463V20.25H129.095C129.147 20.0413 129.114 19.8203 129.003 19.6359C128.893 19.4514 128.713 19.3184 128.504 19.2662C128.295 19.214 128.074 19.2469 127.89 19.3576C127.705 19.4683 127.572 19.6478 127.52 19.8565C125.395 21.3955 123.866 23.6189 123.189 26.1527H123.582L125.551 23.7916L127.52 21.4306C127.52 21.037 128.307 20.6435 128.307 21.037C128.516 21.037 128.717 21.12 128.864 21.2676C129.012 21.4152 129.095 21.6153 129.095 21.8241C129.418 22.9754 129.55 24.1716 129.489 25.3657L132.245 23.3981C133.46 22.65 134.42 21.5527 135.001 20.25L137.363 17.8889C137.949 17.5689 138.631 17.4723 139.283 17.617C139.935 17.7618 140.512 18.138 140.907 18.6759V19.8565H139.726C138.545 19.0695 138.151 19.0695 137.363 20.25C136.166 21.3803 135.46 22.9341 135.395 24.5786L137.363 21.4306L138.938 19.8565C139.726 20.25 139.726 21.037 139.726 21.8241C139.605 22.5061 139.746 23.2086 140.12 23.7916C140.513 25.3657 141.695 25.3657 142.876 24.9722C143.713 24.4034 144.4 23.6415 144.88 22.7511C145.359 21.8606 145.617 20.8677 145.632 19.8565C146.026 17.1019 146.813 14.3473 147.207 11.5927C147.601 8.83811 147.601 10.4122 147.994 10.0186C148.388 9.62513 148.782 9.62513 149.176 10.0186C149.404 10.2205 149.545 10.5024 149.569 10.8057C149.569 11.1992 149.176 11.5927 149.176 11.9862C147.619 17.3579 146.824 22.9213 146.813 28.5138C146.813 29.6943 147.207 30.8749 147.207 32.0554H147.601L148.782 30.8749C149.995 28.5895 151.047 26.2227 151.932 23.7916C152.248 23.0468 152.383 22.2376 152.326 21.4306L153.113 19.0695C153.113 18.676 153.901 18.6759 154.294 18.2824C154.437 18.4421 154.545 18.6292 154.613 18.8322C154.681 19.0352 154.706 19.2498 154.688 19.463C154.688 21.037 154.294 22.6111 154.294 24.1851C154.294 25.7592 154.688 25.7592 154.688 26.9397C154.688 28.1203 155.476 27.7268 156.657 27.3333L157.838 26.5462C159.577 25.0548 160.928 23.1645 161.775 21.037C161.987 20.3478 162.342 19.7111 162.817 19.1685C163.292 18.626 163.876 18.1899 164.532 17.8889C165.713 17.4954 166.5 17.8889 166.5 19.0695C166.5 20.25 166.5 19.8565 166.5 20.25H164.925C164.251 21.0571 163.79 22.0201 163.583 23.0511C163.377 24.0822 163.432 25.1485 163.744 26.1527C164.138 27.3332 164.925 27.7268 165.713 27.3333C168.268 26.2477 170.359 24.2971 171.619 21.8241C172.307 20.3651 173.239 19.0343 174.375 17.8889C174.624 17.6601 174.919 17.4872 175.24 17.3819C175.561 17.2767 175.901 17.2415 176.237 17.2788C176.573 17.3161 176.897 17.425 177.187 17.5982C177.477 17.7713 177.727 18.0046 177.919 18.2824C178.061 18.4421 178.17 18.6292 178.237 18.8322C178.305 19.0352 178.331 19.2498 178.313 19.463H177.131C176.344 19.0695 175.556 19.0695 175.163 19.8565C173.906 21.1077 173.198 22.8061 173.194 24.5786C173.588 23.3981 174.375 22.6111 174.769 21.4306L175.556 20.6435L176.344 19.8565C176.738 20.25 177.131 20.6435 177.131 21.037V23.3981C177.525 25.3657 179.1 25.7592 180.675 24.5786L182.644 22.2176H183.825C183.825 22.6111 184.219 23.3981 183.825 23.3981C183.061 24.9328 181.817 26.1764 180.281 26.9397C179.444 27.2072 178.537 27.154 177.736 26.7904C176.936 26.4267 176.299 25.7787 175.95 24.9722C175.95 24.5787 175.556 24.1851 175.556 23.7916L173.588 26.5462C173.416 26.8988 173.12 27.1749 172.756 27.3204C172.392 27.466 171.986 27.4706 171.619 27.3333C171.225 27.3333 171.225 26.5462 170.438 26.1527L169.65 26.9397L166.894 28.5138C166.412 28.7691 165.877 28.9098 165.332 28.9247C164.787 28.9397 164.245 28.8286 163.75 28.6001C163.254 28.3716 162.818 28.0318 162.476 27.6073C162.134 27.1828 161.894 26.685 161.775 26.1527C161.671 26.1527 161.571 26.1112 161.497 26.0374C161.423 25.9636 161.382 25.8636 161.382 25.7592L158.626 28.5138L157.051 29.3008C156.72 29.5036 156.35 29.6343 155.965 29.6843C155.58 29.7343 155.189 29.7026 154.818 29.5911C154.446 29.4797 154.102 29.2911 153.808 29.0376C153.514 28.7841 153.278 28.4715 153.113 28.1203L152.326 26.1527C151.744 27.6285 151.087 29.0733 150.357 30.4813C149.985 31.4787 149.453 32.409 148.782 33.236C147.994 34.4165 146.42 34.4165 146.026 32.8425C145.539 31.4494 145.274 29.9888 145.238 28.5138V25.3657C143.663 26.1527 142.482 27.3333 140.907 26.9397C140.198 26.727 139.563 26.3188 139.076 25.762C138.588 25.2052 138.268 24.5223 138.151 23.7916L137.363 24.9722L136.576 26.5462C135.788 27.3332 135.395 27.7268 134.607 27.3333C133.82 26.9397 133.426 26.5462 133.426 25.7592V23.7916ZM127.52 29.3008H127.126C125.416 31.5693 123.839 33.9343 122.401 36.3841C121.699 38.0295 121.171 39.7442 120.826 41.4997C120.826 43.0738 122.008 43.8608 123.189 43.0738L125.157 40.7127C126.728 37.1135 127.532 33.2273 127.52 29.3008Z" fill="#261500"/>
<path d="M96.808 2.54196L94.8393 5.29656C91.803 10.8185 89.2981 16.616 87.3582 22.6112L84.9957 28.9074C84.9957 29.3009 84.602 29.6944 84.2082 30.4814L82.6333 31.2685C82.3888 31.0852 82.1903 30.8476 82.0536 30.5743C81.917 30.3011 81.8458 29.9999 81.8458 29.6944C81.3448 28.8617 81.0732 27.9114 81.0583 26.9398C81.4521 24.1852 81.4521 21.4306 81.8458 18.2825V15.9214H81.4521L80.2708 17.889C78.9145 21.2363 77.7317 24.6513 76.7272 28.1203C75.1522 32.449 74.3647 36.7777 72.7897 41.1063C71.2148 45.435 72.396 43.0739 71.2148 43.0739C70.0335 43.0739 70.0336 41.8933 69.6398 41.1063C68.8613 38.0183 68.4646 34.8465 68.4586 31.662C68.4475 22.6248 69.6392 13.6262 72.0023 4.90305C72.396 4.11602 72.396 3.32899 72.7897 2.54196L73.971 1.75494C73.971 2.14846 74.3647 2.93548 74.3647 3.32899C74.3647 3.7225 73.1835 7.65764 72.7897 10.0187C71.6168 15.466 70.8274 20.9887 70.4273 26.5463C70.4273 30.8749 70.4273 34.8101 70.821 39.1387L71.6085 41.1063C71.6085 40.7128 72.0023 40.3193 72.0023 39.9258C72.0023 39.5322 74.7584 30.0879 75.9397 24.9723L79.4834 16.7085L80.6646 14.7409C81.8458 13.9539 83.027 14.3474 83.027 15.5279C83.35 16.4084 83.4842 17.3469 83.4208 18.2825C83.1031 20.8933 82.9715 23.5233 83.027 26.1528C82.7549 27.2141 82.8956 28.3392 83.4208 29.3009C83.4208 28.9954 83.4919 28.6942 83.6286 28.421C83.7653 28.1478 83.9637 27.9101 84.2082 27.7268C85.4141 23.58 86.8602 19.5069 88.5394 15.5279C90.1382 11.6134 91.9793 7.80203 94.0518 4.11602C94.4756 3.05229 95.1512 2.1071 96.0205 1.36142C96.2165 1.13157 96.4745 0.962924 96.7638 0.875595C97.0531 0.788266 97.3613 0.785949 97.6519 0.868915C97.9424 0.95188 98.203 1.11662 98.4024 1.3435C98.6019 1.57038 98.7318 1.84981 98.7767 2.14845C99.0929 2.89329 99.2279 3.70246 99.1705 4.50953L97.9892 14.7409C97.2017 22.2177 96.0205 29.3009 95.233 36.7777C94.4455 44.2544 94.4455 45.0414 94.4455 49.3701H94.0518C94.0269 49.6733 93.8859 49.9553 93.6581 50.1571C93.4492 50.1571 93.2489 50.0742 93.1012 49.9266C92.9536 49.779 92.8706 49.5788 92.8706 49.3701V46.222C93.2643 41.1063 93.2643 36.3841 93.6581 31.2685C94.0518 26.1528 94.8393 21.8241 95.6268 17.102C96.4143 12.3798 96.808 9.2317 97.2017 4.90305C97.5955 0.574401 97.2017 3.32899 97.2017 2.54196H96.808Z" fill="#261500"/>
<path d="M7.03473 10.4122C6.64099 12.3798 5.8535 13.9538 5.45975 15.9214C3.83305 23.173 2.77982 30.5414 2.30982 37.9581V47.009L1.52234 48.1895C1.52234 47.796 0.734863 47.4025 0.734863 47.009V36.3841C1.27758 28.5341 2.59649 20.7571 4.67228 13.1668L5.85351 8.83815C6.24725 8.05112 6.64098 7.26409 7.42846 7.26409C7.84617 7.26409 8.24678 7.42992 8.54214 7.72511C8.83751 8.02031 9.00344 8.42068 9.00344 8.83815L10.1847 15.5279C10.5784 22.6111 10.9721 29.6944 11.7596 36.7776C12.0534 39.0557 12.5812 41.2974 13.3346 43.4673C13.3346 43.7728 13.4058 44.0741 13.5424 44.3473C13.6791 44.6205 13.8776 44.8581 14.1221 45.0414C14.5158 44.6479 15.3033 44.2544 15.3033 43.8609C16.3913 41.5691 17.3124 39.2019 18.0595 36.7776C20.6124 28.7684 21.8101 20.3895 21.6032 11.9863C21.5357 9.08608 21.2726 6.19375 20.8157 3.32895C20.8157 2.93544 20.422 2.54192 20.8157 2.14841C21.2094 1.7549 21.2094 1.36139 21.2094 0.967873C21.2094 0.574359 21.9969 1.7549 21.9969 2.14841C22.3441 3.56348 22.4769 5.02261 22.3907 6.47706C22.8465 8.41401 23.1102 10.3911 23.1781 12.3798C23.1591 16.8647 22.7639 21.3402 21.9969 25.7592C20.8157 30.8749 19.6345 35.9906 18.0595 41.1063C17.6379 42.457 17.1113 43.7727 16.4845 45.0414C16.2707 45.4933 15.9379 45.8786 15.5217 46.1558C15.1055 46.4331 14.6217 46.592 14.1221 46.6155C12.9409 46.6155 12.5471 45.8284 12.1534 44.6479C11.1836 41.8149 10.3945 38.9233 9.79092 35.9906C8.7443 28.5532 8.08717 21.0662 7.82221 13.5603C7.82221 12.7733 7.42846 11.9862 7.42846 11.1992V10.4122H7.03473Z" fill="#261500"/>
<path d="M38.5341 23.3982C37.4262 24.1055 36.4857 25.0455 35.7779 26.1528H34.9905C34.5967 26.5463 33.8092 26.9398 33.4155 26.5463C33.0218 26.1527 32.628 25.3657 32.628 24.9722V23.7917L31.8405 24.5787L29.8718 25.7592C29.1793 26.0811 28.4139 26.2143 27.6532 26.1452C26.8926 26.0761 26.1638 25.8072 25.5407 25.3657C25.0509 24.7674 24.6927 24.0728 24.4892 23.327C24.2856 22.5813 24.2415 21.801 24.3594 21.0371C24.9221 19.4006 26.0354 18.0098 27.5094 17.1019C27.8916 16.8988 28.3303 16.8272 28.7574 16.8984C29.1844 16.9695 29.5761 17.1794 29.8718 17.4955C30.0343 17.6031 30.1675 17.7493 30.2597 17.921C30.3519 18.0926 30.4001 18.2844 30.4001 18.4792C30.4001 18.6741 30.3519 18.8658 30.2597 19.0375C30.1675 19.2091 30.0343 19.3553 29.8718 19.463L27.1156 21.8241C26.7219 22.2176 25.9344 22.2176 25.9344 23.0047C25.9344 23.7917 26.7219 24.5787 27.5094 24.5787H29.4781L34.5967 20.6436C35.3842 19.8565 36.1717 18.676 37.3529 18.2825C38.5341 17.889 38.5341 17.4955 39.3216 17.4955C39.5285 17.4955 39.7333 17.5362 39.9243 17.6153C40.1154 17.6944 40.289 17.8103 40.4353 17.9565C40.5815 18.1027 40.6976 18.2762 40.7767 18.4671C40.8559 18.6581 40.8966 18.8628 40.8966 19.0695V19.8565H40.1091C40.1613 19.6478 40.1284 19.4269 40.0177 19.2424C39.9069 19.0579 39.7273 18.9249 39.5185 18.8728C39.3096 18.8206 39.0886 18.8534 38.904 18.9641C38.7194 19.0748 38.5864 19.2543 38.5341 19.463C36.4094 21.002 34.8799 23.2255 34.203 25.7592H34.5967L35.7779 24.5787L38.5341 21.4306C38.5341 21.0371 39.3216 20.6436 39.7154 20.25L40.5028 21.8241C40.5028 22.6111 40.8966 23.7917 40.8966 24.9722L42.8653 23.3982C43.4576 23.0131 43.9467 22.4891 44.2898 21.8718C44.633 21.2544 44.8198 20.5626 44.834 19.8565C45.2277 19.0695 44.834 18.2825 46.0152 18.2825C47.1965 18.2825 46.8027 19.463 46.409 20.25V22.2176C47.9776 21.386 49.7814 21.1087 51.5276 21.4306C52.3151 21.4306 52.3151 21.4306 52.7088 20.6436L54.2838 18.2825H55.465V19.8565C55.465 20.2501 55.465 20.6436 55.8588 20.6436C56.4477 22.0616 56.6487 23.6108 56.4411 25.1321C56.2336 26.6534 55.6249 28.0922 54.6776 29.3009C53.4963 30.4814 51.9214 30.0879 51.5276 28.1203C51.1339 26.1528 51.5276 26.1528 51.5276 24.9722C51.4663 24.2922 51.6031 23.6089 51.9214 23.0047H48.3777L47.1965 24.1852C46.8027 24.9722 46.8027 26.1528 46.409 27.3333C46.0152 28.5138 46.409 28.1203 46.0152 28.1203L45.2278 28.9074C45.2278 28.5139 44.834 28.5138 44.834 28.1203C44.6306 27.2134 44.6306 26.2727 44.834 25.3657V24.1852L41.6841 26.9398C41.3709 27.4015 41.2314 27.9591 41.2903 28.5138C41.2077 32.138 40.543 35.7253 39.3216 39.1387C38.8888 40.9499 37.9299 42.5928 36.5654 43.8609C35.3842 44.6479 34.203 45.4349 32.628 44.6479C32.111 44.3271 31.7148 43.8443 31.5011 43.2749C31.2874 42.7054 31.2683 42.0812 31.4468 41.4998C31.5298 38.6548 32.4926 35.9053 34.203 33.6295C35.2886 31.986 36.4719 30.4091 37.7467 28.9074C38.2915 28.1108 38.646 27.1997 38.7825 26.2444C38.919 25.2892 38.8341 24.3154 38.5341 23.3982ZM38.5341 29.3009H37.7467C36.1656 31.4389 34.7191 33.6731 33.4155 35.9906C32.2343 37.1711 32.2343 39.1387 31.8405 40.7128C31.7031 41.0799 31.7077 41.4849 31.8534 41.8488C31.999 42.2127 32.2752 42.5092 32.628 42.6803C33.4155 43.0739 33.8092 42.6803 34.5967 42.2868L36.1717 40.3192C36.5654 38.3517 37.3529 36.3841 37.7467 34.023C38.1404 31.6619 38.1404 31.2684 38.5341 29.3009ZM53.8901 21.4306C53.1201 23.3039 52.719 25.3081 52.7088 27.3333C53.5621 26.6404 54.1469 25.6719 54.3625 24.5944C54.5781 23.517 54.4111 22.3982 53.8901 21.4306ZM26.7219 20.6436H27.1156L28.6906 18.676H28.2969L26.7219 20.6436Z" fill="#261500"/>
<path d="M156.657 12.7732C156.668 13.1307 156.557 13.4813 156.342 13.7674C156.128 14.0535 155.822 14.258 155.475 14.3472C154.688 14.3472 154.294 13.5602 154.294 12.7732C154.294 11.9862 155.082 10.8056 155.475 11.1991L156.657 12.7732Z" fill="#261500"/>
</svg>
