<svg width="184" height="100" viewBox="0 0 184 100" fill="none" xmlns="http://www.w3.org/2000/svg">
<path d="M72.0017 6.34374V7.52428C71.2143 6.34373 71.2143 6.34373 72.0017 5.55671H72.3955C73.3231 3.8687 74.6924 2.46442 76.3569 1.49403C78.0214 0.52365 79.9185 0.0236625 81.8453 0.0475248C85.8195 -0.145928 89.8004 0.251928 93.6576 1.22806H100.745L103.895 2.01509C105.076 2.40861 105.47 2.4086 106.257 1.62157L108.226 0.441032V1.62157H110.982C110.297 2.72443 109.767 3.91612 109.407 5.1632C108.62 5.95023 109.013 6.73725 109.801 7.13077L112.557 8.31131C112.766 8.31131 112.966 8.39422 113.114 8.54182C113.262 8.68942 113.345 8.8896 113.345 9.09834C113.345 9.49185 113.345 10.6724 112.557 11.0659C110.28 12.7753 107.529 13.7376 104.682 13.8205L99.9574 15.001H99.5637C99.1699 16.9686 98.3825 18.5427 99.5637 20.1167L100.351 20.9037C99.1699 21.6908 98.3824 20.9037 97.9887 20.1167L96.8075 17.7556C96.4138 18.1492 96.4138 18.1491 97.2012 22.0843C97.9887 26.0194 94.445 21.6908 94.445 19.7232V16.1816C94.8388 14.6075 94.0513 13.8205 92.4763 14.214C90.6442 14.4124 88.7961 14.4124 86.964 14.214H83.0265C82.239 13.8205 82.239 13.8205 81.4516 14.6075C80.6641 15.3945 80.2703 18.1491 81.8453 20.1167C83.4203 22.0843 82.239 20.9037 82.239 20.9037C82.239 20.9037 80.6641 21.2973 80.6641 20.9037C80.6641 20.5102 80.2703 20.1167 79.4828 20.1167L78.6954 19.3297C78.3307 18.2076 77.7998 17.1464 77.1204 16.1816C76.4276 16.4459 75.8504 16.946 75.4902 17.5938C75.1301 18.2417 75.0102 18.9957 75.1517 19.7232C75.1517 20.5102 75.5454 20.9037 75.5454 21.6908C75.5454 22.4778 75.5454 22.4778 75.1517 22.4778C74.5251 22.4778 73.9242 22.229 73.4812 21.7862C73.0381 21.3435 72.7892 20.7429 72.7892 20.1167V19.3297C72.7892 17.3621 72.3955 15.7881 73.9705 14.6075V13.427C73.212 11.6654 72.6827 9.81393 72.3955 7.9178L72.0017 6.34374Z" fill="#261500"/>
<path d="M133.426 55.533L130.276 58.2875C129.882 58.2875 129.882 59.0746 129.882 59.4681L128.701 67.7319C128.365 70.0399 127.413 72.2148 125.945 74.0281C125.703 74.4977 125.37 74.9139 124.964 75.2519C124.558 75.59 124.088 75.8429 123.582 75.9957C123.172 76.1908 122.72 76.2815 122.266 76.2597C121.812 76.2378 121.37 76.104 120.98 75.8703C120.591 75.6366 120.265 75.3101 120.032 74.9201C119.799 74.53 119.666 74.0884 119.645 73.6346C120.039 72.0605 120.039 70.4865 120.433 69.3059C121.932 66.0078 123.923 62.9561 126.339 60.2551C127.914 58.6811 127.914 57.5005 127.52 55.1395L125.945 57.107L124.37 58.2875C123.189 59.4681 122.401 59.0746 121.614 57.5005L120.433 58.6811C120.208 58.9973 119.896 59.2402 119.534 59.3796C119.172 59.5189 118.778 59.5484 118.399 59.4644C118.021 59.3803 117.675 59.1865 117.407 58.9071C117.138 58.6277 116.958 58.2753 116.889 57.894C116.495 56.7135 116.495 55.1394 116.101 53.9589V52.7784H115.708C115.463 52.9616 115.265 53.1993 115.128 53.4725C114.991 53.7457 114.92 54.047 114.92 54.3524L112.951 57.107C112.558 57.894 112.164 58.6811 111.376 58.2875L110.195 56.7135C109.67 57.194 109.044 57.5497 108.362 57.7542C107.68 57.9586 106.961 58.0064 106.258 57.894C104.683 57.5005 103.895 56.32 103.502 54.3524C103.064 55.3179 102.537 56.2401 101.927 57.107C101.139 58.2876 100.745 58.6811 99.5642 58.2875C98.383 57.894 98.383 57.107 98.7768 55.9265C99.1616 53.5564 100.26 51.36 101.927 49.6303C103.502 48.4497 105.077 48.4497 105.864 49.6303C106.177 50.092 106.317 50.6496 106.258 51.2043H103.108C101.772 52.5986 100.94 54.3992 100.745 56.32L102.32 53.9589C102.714 53.1719 102.714 52.7784 103.108 52.3848L104.289 51.5978L105.077 52.7784V54.7459C105.47 57.107 107.045 57.5005 109.014 55.9265C109.89 55.0317 110.562 53.9577 110.983 52.7784L112.164 50.4173L113.345 49.6303C113.345 50.0238 113.739 50.4173 113.345 50.8108C112.951 51.2043 112.558 53.9589 112.558 55.9265C112.839 54.889 113.381 53.9407 114.133 53.1719L115.708 51.2043C116.495 50.4173 117.283 50.8108 117.283 51.9913C117.609 53.4099 117.741 54.8659 117.676 56.32C118.07 56.7135 118.07 57.894 118.858 58.2875C119.645 58.6811 120.039 57.5005 120.826 57.107L123.582 52.7784L127.126 50.0238C127.485 49.8165 127.893 49.7074 128.307 49.7074C128.722 49.7074 129.129 49.8165 129.489 50.0238C129.882 50.0238 129.882 50.8108 130.276 51.2043V51.9913H129.095C129.147 51.7826 129.114 51.5617 129.003 51.3772C128.893 51.1927 128.713 51.0597 128.504 51.0075C128.295 50.9554 128.074 50.9882 127.89 51.0989C127.705 51.2096 127.572 51.3891 127.52 51.5978C125.395 53.1368 123.866 55.3603 123.189 57.894H123.582L125.551 55.533L127.52 53.1719C127.52 52.7784 128.307 52.3849 128.307 52.7784C128.516 52.7784 128.717 52.8613 128.864 53.0089C129.012 53.1565 129.095 53.3567 129.095 53.5654C129.418 54.7168 129.55 55.9129 129.489 57.107L132.245 55.1395C133.46 54.3913 134.42 53.2941 135.001 51.9913L137.363 49.6303C137.949 49.3102 138.631 49.2136 139.283 49.3584C139.935 49.5031 140.512 49.8794 140.907 50.4173V51.5978H139.726C138.545 50.8108 138.151 50.8108 137.363 51.9913C136.166 53.1216 135.46 54.6754 135.395 56.32L137.363 53.1719L138.938 51.5978C139.726 51.9913 139.726 52.7784 139.726 53.5654C139.605 54.2474 139.746 54.9499 140.12 55.533C140.513 57.107 141.695 57.107 142.876 56.7135C143.713 56.1447 144.4 55.3829 144.88 54.4924C145.359 53.6019 145.617 52.6091 145.632 51.5978C146.026 48.8432 146.813 46.0886 147.207 43.334C147.601 40.5794 147.601 42.1535 147.994 41.76C148.388 41.3665 148.782 41.3665 149.176 41.76C149.404 41.9618 149.545 42.2438 149.569 42.547C149.569 42.9405 149.176 43.334 149.176 43.7275C147.619 49.0993 146.824 54.6626 146.813 60.2551C146.813 61.4357 147.207 62.6162 147.207 63.7967H147.601L148.782 62.6162C149.995 60.3309 151.047 57.9641 151.932 55.533C152.248 54.7881 152.383 53.979 152.326 53.1719L153.113 50.8108C153.113 50.4173 153.901 50.4173 154.294 50.0238C154.437 50.1835 154.545 50.3705 154.613 50.5735C154.681 50.7765 154.706 50.9911 154.688 51.2043C154.688 52.7784 154.294 54.3524 154.294 55.9265C154.294 57.5005 154.688 57.5005 154.688 58.6811C154.688 59.8616 155.476 59.4681 156.657 59.0746L157.838 58.2875C159.577 56.7962 160.928 54.9058 161.775 52.7784C161.987 52.0892 162.342 51.4524 162.817 50.9099C163.292 50.3673 163.876 49.9313 164.532 49.6303C165.713 49.2367 166.5 49.6303 166.5 50.8108C166.5 51.9913 166.5 51.5978 166.5 51.9913H164.925C164.251 52.7984 163.79 53.7614 163.583 54.7925C163.377 55.8235 163.432 56.8898 163.744 57.894C164.138 59.0746 164.925 59.4681 165.713 59.0746C168.268 57.989 170.359 56.0385 171.619 53.5654C172.307 52.1064 173.239 50.7756 174.375 49.6303C174.624 49.4014 174.919 49.2285 175.24 49.1233C175.561 49.018 175.901 48.9829 176.237 49.0202C176.573 49.0575 176.897 49.1663 177.187 49.3395C177.477 49.5126 177.727 49.746 177.919 50.0238C178.061 50.1835 178.17 50.3705 178.237 50.5735C178.305 50.7765 178.331 50.9911 178.313 51.2043H177.131C176.344 50.8108 175.556 50.8108 175.163 51.5978C173.906 52.849 173.198 54.5474 173.194 56.32C173.588 55.1394 174.375 54.3524 174.769 53.1719L175.556 52.3848L176.344 51.5978C176.738 51.9913 177.131 52.3849 177.131 52.7784V55.1395C177.525 57.107 179.1 57.5005 180.675 56.32L182.644 53.9589H183.825C183.825 54.3524 184.219 55.1395 183.825 55.1395C183.061 56.6742 181.817 57.9177 180.281 58.6811C179.444 58.9486 178.537 58.8953 177.736 58.5317C176.936 58.1681 176.299 57.52 175.95 56.7135C175.95 56.32 175.556 55.9265 175.556 55.533L173.588 58.2875C173.416 58.6401 173.12 58.9162 172.756 59.0618C172.392 59.2073 171.986 59.2119 171.619 59.0746C171.225 59.0746 171.225 58.2875 170.438 57.894L169.65 58.6811L166.894 60.2551C166.412 60.5104 165.877 60.6511 165.332 60.6661C164.787 60.681 164.245 60.5699 163.75 60.3414C163.254 60.1129 162.818 59.7732 162.476 59.3487C162.134 58.9242 161.894 58.4263 161.775 57.894C161.671 57.894 161.571 57.8526 161.497 57.7788C161.423 57.705 161.382 57.6049 161.382 57.5005L158.626 60.2551L157.051 61.0422C156.72 61.2449 156.35 61.3756 155.965 61.4256C155.58 61.4757 155.189 61.4439 154.818 61.3325C154.446 61.221 154.102 61.0324 153.808 60.7789C153.514 60.5255 153.278 60.2129 153.113 59.8616L152.326 57.894C151.744 59.3698 151.087 60.8146 150.357 62.2227C149.985 63.22 149.453 64.1503 148.782 64.9773C147.994 66.1578 146.42 66.1578 146.026 64.5838C145.539 63.1907 145.274 61.7302 145.238 60.2551V57.107C143.663 57.894 142.482 59.0746 140.907 58.6811C140.198 58.4684 139.563 58.0602 139.076 57.5033C138.588 56.9465 138.268 56.2636 138.151 55.533L137.363 56.7135L136.576 58.2875C135.788 59.0746 135.395 59.4681 134.607 59.0746C133.82 58.6811 133.426 58.2876 133.426 57.5005V55.533ZM127.52 61.0422H127.126C125.416 63.3106 123.839 65.6756 122.401 68.1254C121.699 69.7709 121.171 71.4855 120.826 73.2411C120.826 74.8151 122.008 75.6022 123.189 74.8151L125.157 72.4541C126.728 68.8548 127.532 64.9686 127.52 61.0422Z" fill="#261500"/>
<path d="M96.808 34.2832L94.8393 37.0378C91.803 42.5597 89.2981 48.3572 87.3582 54.3524L84.9957 60.6486C84.9957 61.0421 84.602 61.4356 84.2082 62.2226L82.6333 63.0097C82.3888 62.8264 82.1903 62.5888 82.0536 62.3156C81.917 62.0423 81.8458 61.7411 81.8458 61.4356C81.3448 60.6029 81.0732 59.6526 81.0583 58.681C81.4521 55.9264 81.4521 53.1718 81.8458 50.0237V47.6626H81.4521L80.2708 49.6302C78.9145 52.9775 77.7317 56.3925 76.7272 59.8616C75.1522 64.1902 74.3647 68.5189 72.7897 72.8475C71.2148 77.1762 72.396 74.8151 71.2148 74.8151C70.0335 74.8151 70.0336 73.6345 69.6398 72.8475C68.8613 69.7595 68.4646 66.5877 68.4586 63.4032C68.4475 54.366 69.6392 45.3674 72.0023 36.6443C72.396 35.8572 72.396 35.0702 72.7897 34.2832L73.971 33.4962C73.971 33.8897 74.3647 34.6767 74.3647 35.0702C74.3647 35.4637 73.1835 39.3989 72.7897 41.7599C71.6168 47.2072 70.8274 52.7299 70.4273 58.2875C70.4273 62.6161 70.4273 66.5513 70.821 70.88L71.6085 72.8475C71.6085 72.454 72.0023 72.0605 72.0023 71.667C72.0023 71.2735 74.7584 61.8291 75.9397 56.7135L79.4834 48.4497L80.6646 46.4821C81.8458 45.6951 83.027 46.0886 83.027 47.2691C83.35 48.1496 83.4842 49.0881 83.4208 50.0237C83.1031 52.6345 82.9715 55.2646 83.027 57.894C82.7549 58.9553 82.8956 60.0804 83.4208 61.0421C83.4208 60.7367 83.4919 60.4354 83.6286 60.1622C83.7653 59.889 83.9637 59.6513 84.2082 59.4681C85.4141 55.3213 86.8602 51.2481 88.5394 47.2691C90.1382 43.3546 91.9793 39.5432 94.0518 35.8572C94.4756 34.7935 95.1512 33.8483 96.0205 33.1026C96.2165 32.8728 96.4745 32.7041 96.7638 32.6168C97.0531 32.5295 97.3613 32.5272 97.6519 32.6101C97.9424 32.6931 98.203 32.8578 98.4024 33.0847C98.6019 33.3116 98.7318 33.591 98.7767 33.8897C99.0929 34.6345 99.2279 35.4437 99.1705 36.2507L97.9892 46.4821C97.2017 53.9589 96.0205 61.0421 95.233 68.5189C94.4455 75.9956 94.4455 76.7827 94.4455 81.1113H94.0518C94.0269 81.4146 93.8859 81.6965 93.6581 81.8983C93.4492 81.8983 93.2489 81.8154 93.1012 81.6678C92.9536 81.5202 92.8706 81.32 92.8706 81.1113V77.9632C93.2643 72.8475 93.2643 68.1254 93.6581 63.0097C94.0518 57.894 94.8393 53.5653 95.6268 48.8432C96.4143 44.121 96.808 40.9729 97.2017 36.6443C97.5955 32.3156 97.2017 35.0702 97.2017 34.2832H96.808Z" fill="#261500"/>
<path d="M7.03473 42.1535C6.64099 44.1211 5.8535 45.6952 5.45975 47.6627C3.83305 54.9144 2.77982 62.2827 2.30982 69.6995V78.7503L1.52234 79.9308C1.52234 79.5373 0.734863 79.1438 0.734863 78.7503V68.1254C1.27758 60.2754 2.59649 52.4984 4.67228 44.9081L5.85351 40.5795C6.24725 39.7925 6.64098 39.0054 7.42846 39.0054C7.84617 39.0054 8.24678 39.1713 8.54214 39.4664C8.83751 39.7616 9.00344 40.162 9.00344 40.5795L10.1847 47.2692C10.5784 54.3525 10.9721 61.4357 11.7596 68.519C12.0534 70.797 12.5812 73.0387 13.3346 75.2087C13.3346 75.5141 13.4058 75.8154 13.5424 76.0886C13.6791 76.3618 13.8776 76.5995 14.1221 76.7827C14.5158 76.3892 15.3033 75.9957 15.3033 75.6022C16.3913 73.3104 17.3124 70.9432 18.0595 68.519C20.6124 60.5097 21.8101 52.1308 21.6032 43.7276C21.5357 40.8274 21.2726 37.9351 20.8157 35.0703C20.8157 34.6768 20.422 34.2833 20.8157 33.8897C21.2094 33.4962 21.2094 33.1027 21.2094 32.7092C21.2094 32.3157 21.9969 33.4962 21.9969 33.8897C22.3441 35.3048 22.4769 36.7639 22.3907 38.2184C22.8465 40.1553 23.1102 42.1325 23.1781 44.1211C23.1591 48.6061 22.7639 53.0815 21.9969 57.5006C20.8157 62.6162 19.6345 67.7319 18.0595 72.8476C17.6379 74.1983 17.1113 75.514 16.4845 76.7827C16.2707 77.2347 15.9379 77.6199 15.5217 77.8972C15.1055 78.1745 14.6217 78.3334 14.1221 78.3568C12.9409 78.3568 12.5471 77.5698 12.1534 76.3892C11.1836 73.5563 10.3945 70.6647 9.79092 67.7319C8.7443 60.2945 8.08717 52.8076 7.82221 45.3016C7.82221 44.5146 7.42846 43.7276 7.42846 42.9406V42.1535H7.03473Z" fill="#261500"/>
<path d="M38.5341 55.1394C37.4262 55.8467 36.4857 56.7867 35.7779 57.894H34.9905C34.5967 58.2875 33.8092 58.681 33.4155 58.2875C33.0218 57.894 32.628 57.107 32.628 56.7134V55.5329L31.8405 56.3199L29.8718 57.5005C29.1793 57.8224 28.4139 57.9555 27.6532 57.8864C26.8926 57.8173 26.1638 57.5484 25.5407 57.1069C25.0509 56.5086 24.6927 55.814 24.4892 55.0683C24.2856 54.3225 24.2415 53.5423 24.3594 52.7783C24.9221 51.1418 26.0354 49.751 27.5094 48.8431C27.8916 48.64 28.3303 48.5684 28.7574 48.6396C29.1844 48.7107 29.5761 48.9206 29.8718 49.2367C30.0343 49.3444 30.1675 49.4905 30.2597 49.6622C30.3519 49.8338 30.4001 50.0256 30.4001 50.2205C30.4001 50.4153 30.3519 50.607 30.2597 50.7787C30.1675 50.9504 30.0343 51.0966 29.8718 51.2042L27.1156 53.5653C26.7219 53.9588 25.9344 53.9588 25.9344 54.7459C25.9344 55.5329 26.7219 56.3199 27.5094 56.3199H29.4781L34.5967 52.3848C35.3842 51.5977 36.1717 50.4172 37.3529 50.0237C38.5341 49.6302 38.5341 49.2367 39.3216 49.2367C39.5285 49.2367 39.7333 49.2774 39.9243 49.3565C40.1154 49.4356 40.289 49.5515 40.4353 49.6977C40.5815 49.8439 40.6976 50.0174 40.7767 50.2084C40.8559 50.3993 40.8966 50.604 40.8966 50.8107V51.5977H40.1091C40.1613 51.389 40.1284 51.1681 40.0177 50.9836C39.9069 50.7991 39.7273 50.6661 39.5185 50.614C39.3096 50.5618 39.0886 50.5947 38.904 50.7054C38.7194 50.8161 38.5864 50.9955 38.5341 51.2042C36.4094 52.7433 34.8799 54.9667 34.203 57.5005H34.5967L35.7779 56.3199L38.5341 53.1718C38.5341 52.7783 39.3216 52.3848 39.7154 51.9913L40.5028 53.5653C40.5028 54.3523 40.8966 55.5329 40.8966 56.7134L42.8653 55.1394C43.4576 54.7543 43.9467 54.2303 44.2898 53.613C44.633 52.9956 44.8198 52.3038 44.834 51.5977C45.2277 50.8107 44.834 50.0237 46.0152 50.0237C47.1965 50.0237 46.8027 51.2042 46.409 51.9913V53.9588C47.9776 53.1272 49.7814 52.8499 51.5276 53.1718C52.3151 53.1718 52.3151 53.1718 52.7088 52.3848L54.2838 50.0237H55.465V51.5977C55.465 51.9913 55.465 52.3848 55.8588 52.3848C56.4477 53.8029 56.6487 55.352 56.4411 56.8733C56.2336 58.3946 55.6249 59.8334 54.6776 61.0421C53.4963 62.2226 51.9214 61.8291 51.5276 59.8615C51.1339 57.894 51.5276 57.894 51.5276 56.7134C51.4663 56.0334 51.6031 55.3501 51.9214 54.7459H48.3777L47.1965 55.9264C46.8027 56.7134 46.8027 57.894 46.409 59.0745C46.0152 60.2551 46.409 59.8615 46.0152 59.8615L45.2278 60.6486C45.2278 60.2551 44.834 60.255 44.834 59.8615C44.6306 58.9546 44.6306 58.0139 44.834 57.1069V55.9264L41.6841 58.681C41.3709 59.1427 41.2314 59.7003 41.2903 60.255C41.2077 63.8792 40.543 67.4665 39.3216 70.8799C38.8888 72.6911 37.9299 74.334 36.5654 75.6021C35.3842 76.3891 34.203 77.1761 32.628 76.3891C32.111 76.0683 31.7148 75.5855 31.5011 75.0161C31.2874 74.4466 31.2683 73.8225 31.4468 73.241C31.5298 70.396 32.4926 67.6465 34.203 65.3707C35.2886 63.7272 36.4719 62.1503 37.7467 60.6486C38.2915 59.852 38.646 58.9409 38.7825 57.9857C38.919 57.0304 38.8341 56.0566 38.5341 55.1394ZM38.5341 61.0421H37.7467C36.1656 63.1801 34.7191 65.4143 33.4155 67.7318C32.2343 68.9123 32.2343 70.8799 31.8405 72.454C31.7031 72.8211 31.7077 73.2262 31.8534 73.59C31.999 73.9539 32.2752 74.2504 32.628 74.4216C33.4155 74.8151 33.8092 74.4215 34.5967 74.028L36.1717 72.0604C36.5654 70.0929 37.3529 68.1253 37.7467 65.7642C38.1404 63.4032 38.1404 63.0097 38.5341 61.0421ZM53.8901 53.1718C53.1201 55.0451 52.719 57.0493 52.7088 59.0745C53.5621 58.3816 54.1469 57.4131 54.3625 56.3356C54.5781 55.2582 54.4111 54.1394 53.8901 53.1718ZM26.7219 52.3848H27.1156L28.6906 50.4172H28.2969L26.7219 52.3848Z" fill="#261500"/>
<path d="M107.833 89.3751H112.557C113.739 89.7686 114.92 90.5557 114.92 91.3427C114.92 92.1297 114.526 93.3103 113.345 94.0973H113.739C114.222 94.376 114.622 94.7778 114.899 95.2618C115.175 95.7458 115.319 96.2945 115.314 96.8519C115.22 97.4077 114.93 97.9116 114.497 98.2724C114.063 98.6333 113.515 98.8273 112.951 98.8195H107.833C109.014 98.8195 109.014 98.0324 109.014 97.2454V90.9492C109.014 90.1622 109.014 89.7686 107.833 89.3751ZM110.589 96.4584V97.6389C110.589 98.4259 110.982 98.8195 111.376 98.4259C111.787 98.4597 112.197 98.3639 112.551 98.1522C112.904 97.9404 113.182 97.6233 113.345 97.2454C113.376 96.4398 113.242 95.6362 112.951 94.8843L110.982 94.0973C110.716 94.5786 110.58 95.1213 110.589 95.6713V96.4584ZM110.589 91.7362C110.589 93.7038 110.982 94.0973 112.557 93.7038C112.941 93.4612 113.229 93.0937 113.372 92.6635C113.516 92.2332 113.506 91.7667 113.345 91.3427C113.102 90.9138 112.762 90.5479 112.351 90.2745C111.941 90.0011 111.472 89.8279 110.982 89.7686C110.195 90.1621 110.589 90.9492 110.589 91.3427V91.7362Z" fill="#261500"/>
<path d="M56.6465 89.3751H61.3714C62.5526 89.7686 63.7339 90.5557 63.7339 91.3427C63.7339 92.1297 63.3401 93.3103 62.1589 94.0973C60.9777 94.8843 64.1276 94.8843 64.1276 96.4584C64.1276 97.0846 63.8787 97.6851 63.4356 98.1279C62.9926 98.5707 62.3917 98.8195 61.7651 98.8195H56.6465C57.8277 98.8195 57.8277 98.0324 57.8277 97.2454V90.9492C57.8277 90.1622 57.8277 89.7686 56.6465 89.7686V89.3751ZM59.4027 96.4584V97.6389C59.4027 98.4259 59.7964 98.8195 60.1902 98.8195C60.5839 98.8195 61.7651 98.4259 62.1589 97.2454C62.3622 96.8633 62.4338 96.425 62.3626 95.9981C62.2914 95.5713 62.0814 95.1798 61.7651 94.8843L59.7964 94.0973C59.5298 94.5786 59.3941 95.1213 59.4027 95.6713V96.4584ZM59.4027 91.7362V92.9168C59.4027 93.3103 59.4027 93.7038 59.7964 93.7038C60.1902 93.7038 61.7651 93.3103 62.1589 92.9168C62.3479 92.4348 62.3732 91.9042 62.2309 91.4065C62.0886 90.9087 61.7866 90.4716 61.3714 90.1622C59.7964 89.3751 59.4027 89.7686 59.4027 91.3427V91.7362Z" fill="#261500"/>
<path d="M96.8077 94.0974C96.5632 93.9141 96.3648 93.6764 96.2281 93.4032C96.0914 93.13 96.0202 92.8288 96.0202 92.5233C95.8591 92.0993 95.8495 91.6328 95.993 91.2025C96.1365 90.7723 96.4243 90.4048 96.8077 90.1622C97.5952 90.1622 98.7765 89.7687 99.1702 90.5557C99.5639 91.3428 99.5639 92.5233 98.7765 92.9168C97.989 93.3103 98.3827 94.0974 98.7765 94.4909L99.9577 96.0649C100.351 95.6714 100.745 94.8844 101.139 94.8844H102.32V95.6714C102.295 95.9746 102.154 96.2566 101.926 96.4584H100.745C99.9577 96.852 99.5639 97.2455 100.351 98.0325C101.139 98.8195 101.926 99.213 102.714 98.0325C103.501 96.852 102.32 99.6065 101.926 99.6065C101.533 99.6065 99.9577 99.213 99.1702 98.8195L96.0202 100L94.4453 98.8195C94.0515 96.8519 94.4453 96.0649 96.8077 94.0974ZM97.2015 94.4909C96.0203 94.8844 95.6265 95.2779 96.0202 96.0649C96.1846 96.8336 96.6002 97.5258 97.2015 98.0325C97.5952 98.426 98.3827 98.0325 98.7765 97.639C98.7765 97.2132 98.6383 96.799 98.3827 96.4584L97.2015 94.4909ZM97.989 93.3103C99.1702 92.5233 99.5639 91.3428 98.7765 90.9492H97.5952C96.8077 90.9492 97.2015 92.1298 97.989 93.3103Z" fill="#261500"/>
<path d="M117.676 93.7037C117.676 94.0972 118.07 94.0972 118.07 94.4907C118.07 94.8842 117.676 94.8842 117.676 95.2777H116.888V94.0972C117.198 93.6822 117.635 93.3804 118.134 93.2382C118.632 93.096 119.162 93.1213 119.645 93.3102C120.062 93.3102 120.463 93.476 120.758 93.7712C121.054 94.0664 121.22 94.4668 121.22 94.8842V98.4259H122.401C121.613 99.2129 121.22 99.2129 120.432 98.8194H118.463C117.997 98.8801 117.523 98.8002 117.102 98.5899C116.681 98.3796 116.332 98.0484 116.101 97.6388C116.092 97.1785 116.244 96.7295 116.532 96.37C116.82 96.0105 117.225 95.7632 117.676 95.6713H118.463C118.857 95.6713 119.645 95.6713 119.645 95.2777C119.645 94.8842 119.645 94.0972 119.251 93.7037C118.857 93.3102 118.463 93.7037 117.676 93.7037ZM119.645 97.2453C120.038 96.4583 119.645 96.0648 118.857 96.0648C118.07 96.0648 117.282 96.8518 117.676 97.6388L118.463 98.4259C119.251 98.8194 119.645 98.0323 119.645 97.2453Z" fill="#261500"/>
<path d="M89.3269 96.0647C89.333 96.8358 89.0557 97.5822 88.5477 98.1625C88.0396 98.7427 87.3362 99.1165 86.5707 99.2128C85.7353 99.2128 84.9341 98.8812 84.3434 98.2908C83.7527 97.7004 83.4208 96.8997 83.4208 96.0647C83.4167 95.6674 83.4987 95.2738 83.6612 94.9111C83.8236 94.5484 84.0626 94.2251 84.3619 93.9634C84.6611 93.7017 85.0135 93.5079 85.3947 93.3951C85.776 93.2823 86.1772 93.2533 86.5707 93.3101C87.3017 93.3101 88.0028 93.6003 88.5197 94.1169C89.0365 94.6335 89.3269 95.3342 89.3269 96.0647ZM87.752 96.0647V94.4907C87.752 93.7037 87.3582 93.7036 86.5707 93.7036C85.7832 93.7036 84.9958 93.7037 84.9958 94.4907V97.2453C84.9958 98.4258 85.3895 98.8193 86.5707 98.8193C87.7519 98.8193 87.752 98.4258 87.752 97.2453V96.0647Z" fill="#261500"/>
<path d="M78.3021 98.8194L79.0896 97.6388C78.6958 96.4583 79.8771 94.8842 78.3021 93.3102C76.7271 91.7361 79.8771 92.9167 80.6646 93.7037H83.027V94.4907H80.6646C80.5724 95.1538 80.8751 95.4331 80.705 96.0806C80.3867 96.6848 80.6033 97.7458 80.6646 98.4259C80.6646 98.8194 80.6646 99.6064 81.8458 99.6064L78.3021 98.8194Z" fill="#261500"/>
<path d="M122.795 98.8194C123.189 98.4259 123.583 98.4259 123.583 98.0324C123.583 97.6389 124.37 94.8842 122.795 93.7037C121.22 92.5232 124.764 93.3102 125.158 93.7037H127.52V94.4908L125.889 94.0032L125.37 95.0419C124.976 95.8289 125.37 96.8517 125.37 97.6387C125.37 98.4257 125.551 98.8194 126.733 98.8194H122.795Z" fill="#261500"/>
<path d="M68.8523 98.8194V97.2453H69.246C69.2709 97.5486 69.412 97.8306 69.6398 98.0324L71.2147 98.8194L72.0022 97.6389C72.0022 97.4301 71.9193 97.23 71.7716 97.0824C71.6239 96.9348 71.4236 96.8518 71.2147 96.8518H70.4273C69.246 96.8518 68.8523 96.0648 68.8523 94.8843C68.8523 93.7037 70.0335 93.3102 70.821 93.7037H72.396V95.2778C72.0022 94.8843 72.0022 94.8843 72.0022 94.4908C72.0022 94.0972 70.821 93.7037 70.0335 94.0973C69.246 94.4908 69.6398 94.8843 69.6398 94.8843L70.4273 95.6713H71.2147C72.396 96.0648 73.1835 96.8519 72.7897 98.0324C72.396 99.2129 71.6085 99.9999 70.4273 99.6064L68.8523 98.8194Z" fill="#261500"/>
<path d="M73.9707 93.7037L75.9394 91.7361C75.5457 92.9166 76.3332 93.7037 77.9081 93.3101H77.5144C75.9394 93.3101 75.9394 94.0972 75.9394 95.2777V96.8518C75.9394 98.4258 76.3332 98.4258 77.9081 97.6388C79.4831 96.8518 76.7269 98.8193 75.9394 98.8193C75.6261 98.8193 75.3257 98.695 75.1042 98.4736C74.8826 98.2522 74.7582 97.9519 74.7582 97.6388V94.8842C74.7582 94.4907 74.7582 93.7037 73.9707 93.7037Z" fill="#261500"/>
<path d="M67.6707 98.8195H64.9146C66.4895 97.639 65.702 96.0649 65.702 94.8844C65.702 93.7038 65.3083 94.0973 65.3083 93.3103H66.8833C67.6707 95.2779 66.4895 97.2454 67.6707 98.8195Z" fill="#261500"/>
<path d="M156.657 44.5145C156.668 44.872 156.557 45.2226 156.342 45.5087C156.128 45.7948 155.822 45.9993 155.475 46.0886C154.688 46.0886 154.294 45.3016 154.294 44.5145C154.294 43.7275 155.082 42.547 155.475 42.9405L156.657 44.5145Z" fill="#261500"/>
<path d="M67.6713 90.9491H66.4901L65.7026 90.1621H66.4901L67.6713 90.9491Z" fill="#261500"/>
</svg>
