<svg width="54" height="36" viewBox="0 0 54 36" fill="none" xmlns="http://www.w3.org/2000/svg">
<path d="M27.0257 17.7069C25.9479 16.2391 22.5337 10.5978 23.1823 6.30793C23.458 3.31873 25.6936 1.85519 27.7514 2.07233C29.5678 2.26375 31.2449 3.76229 31.3149 6.67364C31.4299 10.5278 28.9585 14.6763 27.0257 17.7062V17.7069ZM21.7973 6.19365C21.038 11.2107 26.4915 18.3776 26.7829 18.7562C26.805 18.789 26.8329 18.8183 26.8693 18.8405C27.0036 18.9255 27.1807 18.8855 27.2664 18.7519C27.3779 18.5776 27.4886 18.4033 27.5993 18.2291C30.3106 13.9742 32.8956 9.91784 32.7977 6.65721V6.65507C32.7113 3.78371 31.5813 1.81591 30.0721 0.800219C28.6393 -0.164756 26.8257 -0.259754 25.2929 0.530226C23.6387 1.38163 22.2416 3.25658 21.7973 6.19437V6.19365Z" fill="#261500"/>
<path d="M51.6243 22.309C47.3558 19.8183 42.2788 22.0725 37.5889 25.3217C33.139 22.7182 29.0084 19.5869 27.5735 18.4769C27.4177 18.3569 27.2163 18.3434 27.0499 18.4205C26.8713 18.2819 26.6149 18.2741 26.4278 18.4191C24.9928 19.5283 20.8615 22.6597 16.4116 25.2632C11.7217 22.014 6.64472 19.7605 2.37697 22.2511C-2.14077 25.0132 0.795581 29.1302 4.45906 29.9045C7.2647 30.9152 11.9324 28.9952 16.3552 26.4689C19.9244 29.0124 26.8213 35.4322 27.0499 35.1529C27.3042 35.3329 34.214 28.9717 37.6446 26.5267C42.0674 29.0524 46.7351 30.9723 49.5407 29.9616C53.2042 29.1874 56.1406 25.071 51.6235 22.3083L51.6243 22.309ZM5.22547 28.6445C3.12195 27.711 1.032 25.1667 3.82907 23.1611C7.51184 21.6711 11.1217 23.1204 15.4302 25.826C11.3567 28.111 7.6104 29.5038 5.22547 28.6445ZM31.2734 30.2423C29.7163 31.5287 28.3049 32.6958 27.1356 33.5065C27.1328 33.508 27.1299 33.5101 27.1278 33.5122C27.0992 33.5287 27.0735 33.548 27.0499 33.5687C26.9978 33.5294 26.9385 33.4908 26.8728 33.4544C26.8699 33.4522 26.867 33.4508 26.8642 33.4487C25.6957 32.6373 24.2835 31.4716 22.7272 30.1845C21.0593 28.8052 19.2287 27.2931 17.3194 25.9074C21.5886 23.3704 25.4878 20.4283 26.962 19.2905C28.3763 20.3833 32.3376 23.3847 36.6804 25.9653C34.7711 27.351 32.9412 28.8638 31.2734 30.2423ZM51.4443 25.981C51.1371 27.1424 49.9579 28.1781 48.775 28.7031C46.3908 29.5623 42.6438 28.1695 38.571 25.8846C40.321 24.7853 41.9559 23.8939 43.5273 23.3218C45.8237 22.4868 47.9844 22.3347 50.1722 23.2197C51.3957 24.0968 51.6843 25.0768 51.445 25.981H51.4443Z" fill="#261500"/>
</svg>
